<svg width="203" height="81" viewBox="0 0 203 81" fill="none" xmlns="http://www.w3.org/2000/svg">
<path d="M73.6674 54V27.8182H90.0822V31.2188H77.6177V39.196H89.2257V42.5838H77.6177V50.5994H90.2356V54H73.6674ZM109.767 39.1577L106.302 39.7713C106.157 39.3281 105.927 38.9062 105.612 38.5057C105.305 38.1051 104.887 37.777 104.359 37.5213C103.83 37.2656 103.17 37.1378 102.377 37.1378C101.295 37.1378 100.392 37.3807 99.6671 37.8665C98.9426 38.3437 98.5804 38.9616 98.5804 39.7202C98.5804 40.3764 98.8233 40.9048 99.3091 41.3054C99.7949 41.706 100.579 42.0341 101.661 42.2898L104.781 43.0057C106.588 43.4233 107.934 44.0668 108.82 44.9361C109.707 45.8054 110.15 46.9347 110.15 48.3239C110.15 49.5 109.809 50.5483 109.127 51.4688C108.454 52.3807 107.512 53.0966 106.302 53.6165C105.1 54.1364 103.707 54.3963 102.122 54.3963C99.9228 54.3963 98.1287 53.9276 96.7395 52.9901C95.3503 52.044 94.498 50.7017 94.1827 48.9631L97.8773 48.4006C98.1074 49.3636 98.5804 50.0923 99.2963 50.5866C100.012 51.0724 100.945 51.3153 102.096 51.3153C103.349 51.3153 104.35 51.0554 105.1 50.5355C105.85 50.0071 106.225 49.3636 106.225 48.6051C106.225 47.9915 105.995 47.4759 105.535 47.0582C105.083 46.6406 104.389 46.3253 103.451 46.1122L100.127 45.3835C98.2949 44.9659 96.9398 44.3011 96.062 43.3892C95.1926 42.4773 94.758 41.3224 94.758 39.9247C94.758 38.7656 95.0819 37.7514 95.7296 36.8821C96.3773 36.0128 97.2722 35.3352 98.4142 34.8494C99.5563 34.3551 100.865 34.108 102.339 34.108C104.461 34.108 106.132 34.5682 107.35 35.4886C108.569 36.4006 109.374 37.6236 109.767 39.1577ZM122.624 54.3963C120.724 54.3963 119.087 53.9659 117.715 53.1051C116.351 52.2358 115.303 51.0384 114.57 49.5128C113.837 47.9872 113.471 46.2401 113.471 44.2713C113.471 42.277 113.846 40.517 114.596 38.9915C115.346 37.4574 116.403 36.2599 117.766 35.3991C119.13 34.5384 120.736 34.108 122.586 34.108C124.077 34.108 125.407 34.3849 126.574 34.9389C127.742 35.4844 128.684 36.2514 129.4 37.2401C130.124 38.2287 130.555 39.3835 130.691 40.7045H126.971C126.766 39.7841 126.297 38.9915 125.564 38.3267C124.84 37.6619 123.868 37.3295 122.65 37.3295C121.584 37.3295 120.651 37.6108 119.85 38.1733C119.057 38.7273 118.439 39.5199 117.996 40.5511C117.553 41.5739 117.331 42.7841 117.331 44.1818C117.331 45.6136 117.549 46.8494 117.983 47.8892C118.418 48.929 119.032 49.7344 119.824 50.3054C120.626 50.8764 121.567 51.1619 122.65 51.1619C123.374 51.1619 124.03 51.0298 124.618 50.7656C125.215 50.4929 125.714 50.1051 126.114 49.6023C126.523 49.0994 126.809 48.4943 126.971 47.7869H130.691C130.555 49.0568 130.141 50.1903 129.451 51.1875C128.76 52.1847 127.836 52.9687 126.677 53.5398C125.526 54.1108 124.175 54.3963 122.624 54.3963Z" fill="#1E1E1E"/>
</svg>
