<svg width="408" height="195" viewBox="0 0 408 195" fill="none" xmlns="http://www.w3.org/2000/svg">
<rect width="179" height="195" rx="8" fill="#1E1E1E"/>
<path d="M202.636 121V74.4545H218.364C222 74.4545 224.985 75.0758 227.318 76.3182C229.652 77.5455 231.379 79.2348 232.5 81.3864C233.621 83.5379 234.182 85.9848 234.182 88.7273C234.182 91.4697 233.621 93.9015 232.5 96.0227C231.379 98.1439 229.659 99.8106 227.341 101.023C225.023 102.22 222.061 102.818 218.455 102.818H205.727V97.7273H218.273C220.758 97.7273 222.758 97.3636 224.273 96.6364C225.803 95.9091 226.909 94.8788 227.591 93.5455C228.288 92.197 228.636 90.5909 228.636 88.7273C228.636 86.8636 228.288 85.2348 227.591 83.8409C226.894 82.447 225.78 81.3712 224.25 80.6136C222.72 79.8409 220.697 79.4545 218.182 79.4545H208.273V121H202.636ZM224.545 100.091L236 121H229.455L218.182 100.091H224.545ZM282.847 97.7273C282.847 102.636 281.96 106.879 280.188 110.455C278.415 114.03 275.983 116.788 272.892 118.727C269.801 120.667 266.271 121.636 262.301 121.636C258.331 121.636 254.801 120.667 251.71 118.727C248.619 116.788 246.188 114.03 244.415 110.455C242.642 106.879 241.756 102.636 241.756 97.7273C241.756 92.8182 242.642 88.5758 244.415 85C246.188 81.4242 248.619 78.6667 251.71 76.7273C254.801 74.7879 258.331 73.8182 262.301 73.8182C266.271 73.8182 269.801 74.7879 272.892 76.7273C275.983 78.6667 278.415 81.4242 280.188 85C281.96 88.5758 282.847 92.8182 282.847 97.7273ZM277.392 97.7273C277.392 93.697 276.718 90.2955 275.369 87.5227C274.036 84.75 272.225 82.6515 269.938 81.2273C267.665 79.803 265.119 79.0909 262.301 79.0909C259.483 79.0909 256.93 79.803 254.642 81.2273C252.369 82.6515 250.559 84.75 249.21 87.5227C247.877 90.2955 247.21 93.697 247.21 97.7273C247.21 101.758 247.877 105.159 249.21 107.932C250.559 110.705 252.369 112.803 254.642 114.227C256.93 115.652 259.483 116.364 262.301 116.364C265.119 116.364 267.665 115.652 269.938 114.227C272.225 112.803 274.036 110.705 275.369 107.932C276.718 105.159 277.392 101.758 277.392 97.7273Z" fill="#393939"/>
<path d="M331.597 97.7273C331.597 102.636 330.71 106.879 328.938 110.455C327.165 114.03 324.733 116.788 321.642 118.727C318.551 120.667 315.021 121.636 311.051 121.636C307.081 121.636 303.551 120.667 300.46 118.727C297.369 116.788 294.938 114.03 293.165 110.455C291.392 106.879 290.506 102.636 290.506 97.7273C290.506 92.8182 291.392 88.5758 293.165 85C294.938 81.4242 297.369 78.6667 300.46 76.7273C303.551 74.7879 307.081 73.8182 311.051 73.8182C315.021 73.8182 318.551 74.7879 321.642 76.7273C324.733 78.6667 327.165 81.4242 328.938 85C330.71 88.5758 331.597 92.8182 331.597 97.7273ZM326.142 97.7273C326.142 93.697 325.468 90.2955 324.119 87.5227C322.786 84.75 320.975 82.6515 318.688 81.2273C316.415 79.803 313.869 79.0909 311.051 79.0909C308.233 79.0909 305.68 79.803 303.392 81.2273C301.119 82.6515 299.309 84.75 297.96 87.5227C296.627 90.2955 295.96 93.697 295.96 97.7273C295.96 101.758 296.627 105.159 297.96 107.932C299.309 110.705 301.119 112.803 303.392 114.227C305.68 115.652 308.233 116.364 311.051 116.364C313.869 116.364 316.415 115.652 318.688 114.227C320.975 112.803 322.786 110.705 324.119 107.932C325.468 105.159 326.142 101.758 326.142 97.7273ZM341.074 74.4545H347.801L363.619 113.091H364.165L379.983 74.4545H386.71V121H381.438V85.6364H380.983L366.438 121H361.347L346.801 85.6364H346.347V121H341.074V74.4545Z" fill="#393939"/>
<path d="M58.6986 86.6364C58.3832 83.9735 57.1043 81.9062 54.8619 80.4347C52.6195 78.9631 49.869 78.2273 46.6105 78.2273C44.2279 78.2273 42.1432 78.6127 40.3562 79.3835C38.5868 80.1544 37.2028 81.2142 36.2042 82.5632C35.2232 83.9122 34.7326 85.4451 34.7326 87.1619C34.7326 88.5985 35.0743 89.8336 35.7575 90.8672C36.4583 91.8833 37.3517 92.733 38.4379 93.4162C39.5241 94.0819 40.6628 94.6338 41.8541 95.0717C43.0454 95.4922 44.1403 95.8338 45.1389 96.0966L50.6048 97.5682C52.0063 97.9361 53.5655 98.4441 55.2824 99.0923C57.0167 99.7405 58.6723 100.625 60.249 101.746C61.8432 102.85 63.1571 104.269 64.1907 106.004C65.2244 107.738 65.7412 109.866 65.7412 112.389C65.7412 115.297 64.9791 117.925 63.4549 120.273C61.9483 122.62 59.7409 124.486 56.8328 125.87C53.9422 127.254 50.4296 127.946 46.2951 127.946C42.441 127.946 39.1036 127.324 36.2831 126.08C33.48 124.836 31.2727 123.102 29.6609 120.877C28.0667 118.652 27.1645 116.068 26.9542 113.125H33.6815C33.8567 115.157 34.5399 116.839 35.7312 118.17C36.94 119.484 38.4642 120.465 40.3037 121.114C42.1607 121.744 44.1578 122.06 46.2951 122.06C48.7828 122.06 51.0165 121.657 52.9961 120.851C54.9758 120.027 56.5437 118.889 57.7 117.435C58.8562 115.963 59.4343 114.246 59.4343 112.284C59.4343 110.497 58.9351 109.043 57.9365 107.922C56.9379 106.801 55.624 105.89 53.9947 105.189C52.3655 104.488 50.6048 103.875 48.7128 103.349L42.0906 101.457C37.8861 100.249 34.5575 98.523 32.1048 96.2805C29.6521 94.0381 28.4258 91.1037 28.4258 87.4773C28.4258 84.464 29.2405 81.8362 30.8697 79.5938C32.5165 77.3338 34.7239 75.5819 37.4919 74.3381C40.2774 73.0767 43.387 72.446 46.8207 72.446C50.2895 72.446 53.3728 73.0679 56.0707 74.3118C58.7686 75.5381 60.9059 77.2199 62.4826 79.3572C64.0769 81.4946 64.9178 83.9209 65.0054 86.6364H58.6986ZM127.045 100.091C127.045 105.767 126.02 110.672 123.971 114.807C121.921 118.941 119.109 122.13 115.535 124.372C111.961 126.615 107.88 127.736 103.29 127.736C98.6996 127.736 94.6177 126.615 91.0439 124.372C87.47 122.13 84.6582 118.941 82.6085 114.807C80.5588 110.672 79.5339 105.767 79.5339 100.091C79.5339 94.4148 80.5588 89.5095 82.6085 85.375C84.6582 81.2405 87.47 78.0521 91.0439 75.8097C94.6177 73.5672 98.6996 72.446 103.29 72.446C107.88 72.446 111.961 73.5672 115.535 75.8097C119.109 78.0521 121.921 81.2405 123.971 85.375C126.02 89.5095 127.045 94.4148 127.045 100.091ZM120.738 100.091C120.738 95.4309 119.959 91.4979 118.4 88.2919C116.858 85.0859 114.765 82.6596 112.119 81.0128C109.491 79.366 106.548 78.5426 103.29 78.5426C100.031 78.5426 97.0791 79.366 94.4338 81.0128C91.8059 82.6596 89.7124 85.0859 88.1532 88.2919C86.6116 91.4979 85.8407 95.4309 85.8407 100.091C85.8407 104.751 86.6116 108.684 88.1532 111.89C89.7124 115.096 91.8059 117.522 94.4338 119.169C97.0791 120.816 100.031 121.639 103.29 121.639C106.548 121.639 109.491 120.816 112.119 119.169C114.765 117.522 116.858 115.096 118.4 111.89C119.959 108.684 120.738 104.751 120.738 100.091ZM100.452 67.7159L106.863 55.5227H114.116L105.917 67.7159H100.452ZM149.7 73.1818V127H143.183V73.1818H149.7Z" fill="#D8D8D8"/>
<ellipse cx="146.5" cy="61.5" rx="6" ry="5.5" fill="#D8D8D8"/>
</svg>
