<svg width="408" height="195" viewBox="0 0 408 195" fill="none" xmlns="http://www.w3.org/2000/svg">
<rect width="179" height="195" rx="8" fill="#1E1E1E"/>
<path d="M202.636 125V78.4545H218.364C222 78.4545 224.985 79.0758 227.318 80.3182C229.652 81.5455 231.379 83.2348 232.5 85.3864C233.621 87.5379 234.182 89.9848 234.182 92.7273C234.182 95.4697 233.621 97.9015 232.5 100.023C231.379 102.144 229.659 103.811 227.341 105.023C225.023 106.22 222.061 106.818 218.455 106.818H205.727V101.727H218.273C220.758 101.727 222.758 101.364 224.273 100.636C225.803 99.9091 226.909 98.8788 227.591 97.5455C228.288 96.197 228.636 94.5909 228.636 92.7273C228.636 90.8636 228.288 89.2348 227.591 87.8409C226.894 86.447 225.78 85.3712 224.25 84.6136C222.72 83.8409 220.697 83.4545 218.182 83.4545H208.273V125H202.636ZM224.545 104.091L236 125H229.455L218.182 104.091H224.545ZM282.847 101.727C282.847 106.636 281.96 110.879 280.188 114.455C278.415 118.03 275.983 120.788 272.892 122.727C269.801 124.667 266.271 125.636 262.301 125.636C258.331 125.636 254.801 124.667 251.71 122.727C248.619 120.788 246.188 118.03 244.415 114.455C242.642 110.879 241.756 106.636 241.756 101.727C241.756 96.8182 242.642 92.5758 244.415 89C246.188 85.4242 248.619 82.6667 251.71 80.7273C254.801 78.7879 258.331 77.8182 262.301 77.8182C266.271 77.8182 269.801 78.7879 272.892 80.7273C275.983 82.6667 278.415 85.4242 280.188 89C281.96 92.5758 282.847 96.8182 282.847 101.727ZM277.392 101.727C277.392 97.697 276.718 94.2955 275.369 91.5227C274.036 88.75 272.225 86.6515 269.938 85.2273C267.665 83.803 265.119 83.0909 262.301 83.0909C259.483 83.0909 256.93 83.803 254.642 85.2273C252.369 86.6515 250.559 88.75 249.21 91.5227C247.877 94.2955 247.21 97.697 247.21 101.727C247.21 105.758 247.877 109.159 249.21 111.932C250.559 114.705 252.369 116.803 254.642 118.227C256.93 119.652 259.483 120.364 262.301 120.364C265.119 120.364 267.665 119.652 269.938 118.227C272.225 116.803 274.036 114.705 275.369 111.932C276.718 109.159 277.392 105.758 277.392 101.727Z" fill="#393939"/>
<path d="M331.597 101.727C331.597 106.636 330.71 110.879 328.938 114.455C327.165 118.03 324.733 120.788 321.642 122.727C318.551 124.667 315.021 125.636 311.051 125.636C307.081 125.636 303.551 124.667 300.46 122.727C297.369 120.788 294.938 118.03 293.165 114.455C291.392 110.879 290.506 106.636 290.506 101.727C290.506 96.8182 291.392 92.5758 293.165 89C294.938 85.4242 297.369 82.6667 300.46 80.7273C303.551 78.7879 307.081 77.8182 311.051 77.8182C315.021 77.8182 318.551 78.7879 321.642 80.7273C324.733 82.6667 327.165 85.4242 328.938 89C330.71 92.5758 331.597 96.8182 331.597 101.727ZM326.142 101.727C326.142 97.697 325.468 94.2955 324.119 91.5227C322.786 88.75 320.975 86.6515 318.688 85.2273C316.415 83.803 313.869 83.0909 311.051 83.0909C308.233 83.0909 305.68 83.803 303.392 85.2273C301.119 86.6515 299.309 88.75 297.96 91.5227C296.627 94.2955 295.96 97.697 295.96 101.727C295.96 105.758 296.627 109.159 297.96 111.932C299.309 114.705 301.119 116.803 303.392 118.227C305.68 119.652 308.233 120.364 311.051 120.364C313.869 120.364 316.415 119.652 318.688 118.227C320.975 116.803 322.786 114.705 324.119 111.932C325.468 109.159 326.142 105.758 326.142 101.727ZM341.074 78.4545H347.801L363.619 117.091H364.165L379.983 78.4545H386.71V125H381.438V89.6364H380.983L366.438 125H361.347L346.801 89.6364H346.347V125H341.074V78.4545Z" fill="#393939"/>
<path d="M58.6986 86.6364C58.3832 83.9735 57.1043 81.9062 54.8619 80.4347C52.6195 78.9631 49.869 78.2273 46.6105 78.2273C44.2279 78.2273 42.1432 78.6127 40.3562 79.3835C38.5868 80.1544 37.2028 81.2142 36.2042 82.5632C35.2232 83.9122 34.7326 85.4451 34.7326 87.1619C34.7326 88.5985 35.0743 89.8336 35.7575 90.8672C36.4583 91.8833 37.3517 92.733 38.4379 93.4162C39.5241 94.0819 40.6628 94.6338 41.8541 95.0717C43.0454 95.4922 44.1403 95.8338 45.1389 96.0966L50.6048 97.5682C52.0063 97.9361 53.5655 98.4441 55.2824 99.0923C57.0167 99.7405 58.6723 100.625 60.249 101.746C61.8432 102.85 63.1571 104.269 64.1907 106.004C65.2244 107.738 65.7412 109.866 65.7412 112.389C65.7412 115.297 64.9791 117.925 63.4549 120.273C61.9483 122.62 59.7409 124.486 56.8328 125.87C53.9422 127.254 50.4296 127.946 46.2951 127.946C42.441 127.946 39.1036 127.324 36.2831 126.08C33.48 124.836 31.2727 123.102 29.6609 120.877C28.0667 118.652 27.1645 116.068 26.9542 113.125H33.6815C33.8567 115.157 34.5399 116.839 35.7312 118.17C36.94 119.484 38.4642 120.465 40.3037 121.114C42.1607 121.744 44.1578 122.06 46.2951 122.06C48.7828 122.06 51.0165 121.657 52.9961 120.851C54.9758 120.027 56.5437 118.889 57.7 117.435C58.8562 115.963 59.4343 114.246 59.4343 112.284C59.4343 110.497 58.9351 109.043 57.9365 107.922C56.9379 106.801 55.624 105.89 53.9947 105.189C52.3655 104.488 50.6048 103.875 48.7128 103.349L42.0906 101.457C37.8861 100.249 34.5575 98.523 32.1048 96.2805C29.6521 94.0381 28.4258 91.1037 28.4258 87.4773C28.4258 84.464 29.2405 81.8362 30.8697 79.5938C32.5165 77.3338 34.7239 75.5819 37.4919 74.3381C40.2774 73.0767 43.387 72.446 46.8207 72.446C50.2895 72.446 53.3728 73.0679 56.0707 74.3118C58.7686 75.5381 60.9059 77.2199 62.4826 79.3572C64.0769 81.4946 64.9178 83.9209 65.0054 86.6364H58.6986ZM127.045 100.091C127.045 105.767 126.02 110.672 123.971 114.807C121.921 118.941 119.109 122.13 115.535 124.372C111.961 126.615 107.88 127.736 103.29 127.736C98.6996 127.736 94.6177 126.615 91.0439 124.372C87.47 122.13 84.6582 118.941 82.6085 114.807C80.5588 110.672 79.5339 105.767 79.5339 100.091C79.5339 94.4148 80.5588 89.5095 82.6085 85.375C84.6582 81.2405 87.47 78.0521 91.0439 75.8097C94.6177 73.5672 98.6996 72.446 103.29 72.446C107.88 72.446 111.961 73.5672 115.535 75.8097C119.109 78.0521 121.921 81.2405 123.971 85.375C126.02 89.5095 127.045 94.4148 127.045 100.091ZM120.738 100.091C120.738 95.4309 119.959 91.4979 118.4 88.2919C116.858 85.0859 114.765 82.6596 112.119 81.0128C109.491 79.366 106.548 78.5426 103.29 78.5426C100.031 78.5426 97.0791 79.366 94.4338 81.0128C91.8059 82.6596 89.7124 85.0859 88.1532 88.2919C86.6116 91.4979 85.8407 95.4309 85.8407 100.091C85.8407 104.751 86.6116 108.684 88.1532 111.89C89.7124 115.096 91.8059 117.522 94.4338 119.169C97.0791 120.816 100.031 121.639 103.29 121.639C106.548 121.639 109.491 120.816 112.119 119.169C114.765 117.522 116.858 115.096 118.4 111.89C119.959 108.684 120.738 104.751 120.738 100.091ZM100.452 67.7159L106.863 55.5227H114.116L105.917 67.7159H100.452ZM149.7 73.1818V127H143.183V73.1818H149.7Z" fill="#D8D8D8"/>
<ellipse cx="146.5" cy="61.5" rx="6" ry="5.5" fill="#D8D8D8"/>
</svg>
